<svg xmlns="http://www.w3.org/2000/svg" xmlns:xlink="http://www.w3.org/1999/xlink" width="500" zoomAndPan="magnify" viewBox="0 0 375 149.999998" height="200" preserveAspectRatio="xMidYMid meet" version="1.0"><defs><g/></defs><g fill="#000000" fill-opacity="1"><g transform="translate(15.000002, 65.93876)"><g><path d="M 22.109375 -5.5 L 10.5 -5.5 L 8.640625 0 L 0.703125 0 L 11.953125 -31.09375 L 20.734375 -31.09375 L 31.984375 0 L 23.96875 0 Z M 20.15625 -11.34375 L 16.296875 -22.71875 L 12.484375 -11.34375 Z M 20.15625 -11.34375 "/></g></g></g><g fill="#000000" fill-opacity="1"><g transform="translate(51.053863, 65.93876)"><g><path d="M 30.5625 0 L 22.984375 0 L 10.328125 -19.1875 L 10.328125 0 L 2.75 0 L 2.75 -31.09375 L 10.328125 -31.09375 L 22.984375 -11.828125 L 22.984375 -31.09375 L 30.5625 -31.09375 Z M 30.5625 0 "/></g></g></g><g fill="#000000" fill-opacity="1"><g transform="translate(87.772103, 65.93876)"><g><path d="M 10.328125 -31.09375 L 10.328125 0 L 2.75 0 L 2.75 -31.09375 Z M 10.328125 -31.09375 "/></g></g></g><g fill="#000000" fill-opacity="1"><g transform="translate(104.249134, 65.93876)"><g><path d="M 37.96875 -31.09375 L 37.96875 0 L 30.390625 0 L 30.390625 -18.65625 L 23.4375 0 L 17.3125 0 L 10.328125 -18.6875 L 10.328125 0 L 2.75 0 L 2.75 -31.09375 L 11.6875 -31.09375 L 20.421875 -9.5625 L 29.0625 -31.09375 Z M 37.96875 -31.09375 "/></g></g></g><g fill="#000000" fill-opacity="1"><g transform="translate(148.319753, 65.93876)"><g><path d="M 22.109375 -5.5 L 10.5 -5.5 L 8.640625 0 L 0.703125 0 L 11.953125 -31.09375 L 20.734375 -31.09375 L 31.984375 0 L 23.96875 0 Z M 20.15625 -11.34375 L 16.296875 -22.71875 L 12.484375 -11.34375 Z M 20.15625 -11.34375 "/></g></g></g><g fill="#000000" fill-opacity="1"><g transform="translate(184.373614, 65.93876)"><g><path d="M 10.328125 -5.84375 L 20.25 -5.84375 L 20.25 0 L 2.75 0 L 2.75 -31.09375 L 10.328125 -31.09375 Z M 10.328125 -5.84375 "/></g></g></g><g fill="#000000" fill-opacity="1"><g transform="translate(208.911694, 65.93876)"><g/></g></g><g fill="#000000" fill-opacity="1"><g transform="translate(221.712542, 65.93876)"><g><path d="M 1.46875 -15.59375 C 1.46875 -18.664062 2.128906 -21.40625 3.453125 -23.8125 C 4.785156 -26.21875 6.640625 -28.09375 9.015625 -29.4375 C 11.390625 -30.78125 14.082031 -31.453125 17.09375 -31.453125 C 20.789062 -31.453125 23.953125 -30.476562 26.578125 -28.53125 C 29.203125 -26.582031 30.957031 -23.921875 31.84375 -20.546875 L 23.515625 -20.546875 C 22.898438 -21.847656 22.023438 -22.835938 20.890625 -23.515625 C 19.753906 -24.203125 18.460938 -24.546875 17.015625 -24.546875 C 14.679688 -24.546875 12.789062 -23.734375 11.34375 -22.109375 C 9.894531 -20.484375 9.171875 -18.3125 9.171875 -15.59375 C 9.171875 -12.875 9.894531 -10.703125 11.34375 -9.078125 C 12.789062 -7.453125 14.679688 -6.640625 17.015625 -6.640625 C 18.460938 -6.640625 19.753906 -6.976562 20.890625 -7.65625 C 22.023438 -8.34375 22.898438 -9.332031 23.515625 -10.625 L 31.84375 -10.625 C 30.957031 -7.257812 29.203125 -4.609375 26.578125 -2.671875 C 23.953125 -0.742188 20.789062 0.21875 17.09375 0.21875 C 14.082031 0.21875 11.390625 -0.453125 9.015625 -1.796875 C 6.640625 -3.140625 4.785156 -5.003906 3.453125 -7.390625 C 2.128906 -9.785156 1.46875 -12.519531 1.46875 -15.59375 Z M 1.46875 -15.59375 "/></g></g></g><g fill="#000000" fill-opacity="1"><g transform="translate(258.873685, 65.93876)"><g><path d="M 22.109375 -5.5 L 10.5 -5.5 L 8.640625 0 L 0.703125 0 L 11.953125 -31.09375 L 20.734375 -31.09375 L 31.984375 0 L 23.96875 0 Z M 20.15625 -11.34375 L 16.296875 -22.71875 L 12.484375 -11.34375 Z M 20.15625 -11.34375 "/></g></g></g><g fill="#000000" fill-opacity="1"><g transform="translate(294.927545, 65.93876)"><g><path d="M 18.609375 0 L 12.140625 -11.734375 L 10.328125 -11.734375 L 10.328125 0 L 2.75 0 L 2.75 -31.09375 L 15.453125 -31.09375 C 17.910156 -31.09375 20 -30.664062 21.71875 -29.8125 C 23.445312 -28.957031 24.738281 -27.78125 25.59375 -26.28125 C 26.457031 -24.789062 26.890625 -23.132812 26.890625 -21.3125 C 26.890625 -19.238281 26.304688 -17.390625 25.140625 -15.765625 C 23.972656 -14.140625 22.253906 -12.988281 19.984375 -12.3125 L 27.15625 0 Z M 10.328125 -17.09375 L 15.015625 -17.09375 C 16.398438 -17.09375 17.441406 -17.429688 18.140625 -18.109375 C 18.835938 -18.796875 19.1875 -19.757812 19.1875 -21 C 19.1875 -22.175781 18.835938 -23.101562 18.140625 -23.78125 C 17.441406 -24.46875 16.398438 -24.8125 15.015625 -24.8125 L 10.328125 -24.8125 Z M 10.328125 -17.09375 "/></g></g></g><g fill="#000000" fill-opacity="1"><g transform="translate(327.21663, 65.93876)"><g><path d="M 10.328125 -25.03125 L 10.328125 -18.734375 L 20.46875 -18.734375 L 20.46875 -12.890625 L 10.328125 -12.890625 L 10.328125 -6.0625 L 21.796875 -6.0625 L 21.796875 0 L 2.75 0 L 2.75 -31.09375 L 21.796875 -31.09375 L 21.796875 -25.03125 Z M 10.328125 -25.03125 "/></g></g></g><g fill="#000000" fill-opacity="1"><g transform="translate(15.000002, 115.020451)"><g><path d="M 1.46875 -15.59375 C 1.46875 -18.664062 2.128906 -21.40625 3.453125 -23.8125 C 4.785156 -26.21875 6.640625 -28.09375 9.015625 -29.4375 C 11.390625 -30.78125 14.082031 -31.453125 17.09375 -31.453125 C 20.789062 -31.453125 23.953125 -30.476562 26.578125 -28.53125 C 29.203125 -26.582031 30.957031 -23.921875 31.84375 -20.546875 L 23.515625 -20.546875 C 22.898438 -21.847656 22.023438 -22.835938 20.890625 -23.515625 C 19.753906 -24.203125 18.460938 -24.546875 17.015625 -24.546875 C 14.679688 -24.546875 12.789062 -23.734375 11.34375 -22.109375 C 9.894531 -20.484375 9.171875 -18.3125 9.171875 -15.59375 C 9.171875 -12.875 9.894531 -10.703125 11.34375 -9.078125 C 12.789062 -7.453125 14.679688 -6.640625 17.015625 -6.640625 C 18.460938 -6.640625 19.753906 -6.976562 20.890625 -7.65625 C 22.023438 -8.34375 22.898438 -9.332031 23.515625 -10.625 L 31.84375 -10.625 C 30.957031 -7.257812 29.203125 -4.609375 26.578125 -2.671875 C 23.953125 -0.742188 20.789062 0.21875 17.09375 0.21875 C 14.082031 0.21875 11.390625 -0.453125 9.015625 -1.796875 C 6.640625 -3.140625 4.785156 -5.003906 3.453125 -7.390625 C 2.128906 -9.785156 1.46875 -12.519531 1.46875 -15.59375 Z M 1.46875 -15.59375 "/></g></g></g><g fill="#000000" fill-opacity="1"><g transform="translate(52.161146, 115.020451)"><g><path d="M 10.328125 -25.03125 L 10.328125 -18.734375 L 20.46875 -18.734375 L 20.46875 -12.890625 L 10.328125 -12.890625 L 10.328125 -6.0625 L 21.796875 -6.0625 L 21.796875 0 L 2.75 0 L 2.75 -31.09375 L 21.796875 -31.09375 L 21.796875 -25.03125 Z M 10.328125 -25.03125 "/></g></g></g><g fill="#000000" fill-opacity="1"><g transform="translate(79.533881, 115.020451)"><g><path d="M 30.5625 0 L 22.984375 0 L 10.328125 -19.1875 L 10.328125 0 L 2.75 0 L 2.75 -31.09375 L 10.328125 -31.09375 L 22.984375 -11.828125 L 22.984375 -31.09375 L 30.5625 -31.09375 Z M 30.5625 0 "/></g></g></g><g fill="#000000" fill-opacity="1"><g transform="translate(116.252121, 115.020451)"><g><path d="M 25.109375 -31.09375 L 25.109375 -25.03125 L 16.875 -25.03125 L 16.875 0 L 9.296875 0 L 9.296875 -25.03125 L 1.0625 -25.03125 L 1.0625 -31.09375 Z M 25.109375 -31.09375 "/></g></g></g><g fill="#000000" fill-opacity="1"><g transform="translate(145.839421, 115.020451)"><g><path d="M 10.328125 -25.03125 L 10.328125 -18.734375 L 20.46875 -18.734375 L 20.46875 -12.890625 L 10.328125 -12.890625 L 10.328125 -6.0625 L 21.796875 -6.0625 L 21.796875 0 L 2.75 0 L 2.75 -31.09375 L 21.796875 -31.09375 L 21.796875 -25.03125 Z M 10.328125 -25.03125 "/></g></g></g><g fill="#000000" fill-opacity="1"><g transform="translate(173.212156, 115.020451)"><g><path d="M 18.609375 0 L 12.140625 -11.734375 L 10.328125 -11.734375 L 10.328125 0 L 2.75 0 L 2.75 -31.09375 L 15.453125 -31.09375 C 17.910156 -31.09375 20 -30.664062 21.71875 -29.8125 C 23.445312 -28.957031 24.738281 -27.78125 25.59375 -26.28125 C 26.457031 -24.789062 26.890625 -23.132812 26.890625 -21.3125 C 26.890625 -19.238281 26.304688 -17.390625 25.140625 -15.765625 C 23.972656 -14.140625 22.253906 -12.988281 19.984375 -12.3125 L 27.15625 0 Z M 10.328125 -17.09375 L 15.015625 -17.09375 C 16.398438 -17.09375 17.441406 -17.429688 18.140625 -18.109375 C 18.835938 -18.796875 19.1875 -19.757812 19.1875 -21 C 19.1875 -22.175781 18.835938 -23.101562 18.140625 -23.78125 C 17.441406 -24.46875 16.398438 -24.8125 15.015625 -24.8125 L 10.328125 -24.8125 Z M 10.328125 -17.09375 "/></g></g></g></svg>