<svg xmlns="http://www.w3.org/2000/svg" xmlns:xlink="http://www.w3.org/1999/xlink" width="500" zoomAndPan="magnify" viewBox="0 0 375 149.999998" height="200" preserveAspectRatio="xMidYMid meet" version="1.0"><defs><g/></defs><path fill="#000000" d="M 143.570312 95.320312 C 143.578125 95.460938 143.570312 95.601562 143.546875 95.738281 C 143.523438 95.875 143.484375 96.011719 143.4375 96.140625 C 143.386719 96.273438 143.324219 96.398438 143.25 96.515625 C 143.171875 96.632812 143.085938 96.742188 142.988281 96.84375 C 142.890625 96.945312 142.785156 97.035156 142.671875 97.113281 C 142.554688 97.195312 142.433594 97.261719 142.304688 97.316406 C 142.175781 97.371094 142.042969 97.410156 141.90625 97.4375 C 141.769531 97.46875 141.628906 97.480469 141.492188 97.480469 C 141.351562 97.480469 141.210938 97.46875 141.074219 97.4375 C 140.9375 97.410156 140.804688 97.371094 140.675781 97.316406 C 140.546875 97.261719 140.425781 97.195312 140.308594 97.113281 C 140.195312 97.035156 140.085938 96.945312 139.992188 96.84375 C 139.894531 96.742188 139.808594 96.632812 139.734375 96.515625 C 139.65625 96.398438 139.59375 96.273438 139.546875 96.140625 C 139.496094 96.011719 139.457031 95.875 139.4375 95.738281 C 139.414062 95.601562 139.402344 95.460938 139.40625 95.320312 C 139.40625 85.90625 137.515625 77.382812 133.789062 69.980469 C 132.28125 67 130.484375 64.203125 128.402344 61.585938 C 126.320312 58.96875 124 56.589844 121.433594 54.449219 C 116.75 50.527344 111.558594 47.457031 105.867188 45.242188 L 105.867188 55.511719 C 105.867188 55.644531 105.851562 55.773438 105.828125 55.898438 C 105.804688 56.027344 105.765625 56.152344 105.71875 56.273438 C 105.671875 56.394531 105.613281 56.511719 105.542969 56.621094 C 105.472656 56.730469 105.394531 56.835938 105.304688 56.929688 C 105.21875 57.023438 105.121094 57.109375 105.015625 57.1875 C 104.910156 57.265625 104.796875 57.332031 104.679688 57.386719 C 104.5625 57.445312 104.441406 57.488281 104.316406 57.523438 C 104.1875 57.554688 104.0625 57.578125 103.929688 57.585938 L 98.316406 58.007812 C 97.578125 58.0625 96.847656 58.171875 96.125 58.34375 C 95.402344 58.515625 94.699219 58.738281 94.011719 59.019531 C 93.328125 59.304688 92.667969 59.636719 92.035156 60.023438 C 91.398438 60.410156 90.800781 60.84375 90.238281 61.324219 C 89.671875 61.804688 89.148438 62.328125 88.667969 62.894531 C 88.1875 63.457031 87.753906 64.054688 87.367188 64.691406 C 86.980469 65.324219 86.648438 65.984375 86.367188 66.667969 C 86.085938 67.355469 85.859375 68.058594 85.691406 68.78125 L 85.019531 71.609375 C 84.917969 72.046875 84.78125 72.472656 84.617188 72.890625 C 84.449219 73.304688 84.253906 73.707031 84.027344 74.09375 C 83.800781 74.480469 83.546875 74.851562 83.265625 75.199219 C 82.984375 75.546875 82.675781 75.875 82.34375 76.175781 C 82.015625 76.480469 81.664062 76.757812 81.289062 77.007812 C 80.917969 77.257812 80.527344 77.476562 80.125 77.671875 C 79.71875 77.863281 79.300781 78.023438 78.871094 78.152344 C 78.441406 78.28125 78.003906 78.375 77.558594 78.441406 L 74.339844 78.914062 C 73.914062 78.972656 73.574219 79.175781 73.320312 79.523438 C 73.070312 79.867188 72.976562 80.25 73.046875 80.671875 L 74.546875 90.191406 C 74.617188 90.636719 74.722656 91.070312 74.871094 91.496094 C 75.015625 91.921875 75.199219 92.328125 75.417969 92.722656 C 75.636719 93.117188 75.886719 93.484375 76.171875 93.832031 C 76.457031 94.179688 76.769531 94.5 77.109375 94.792969 C 77.453125 95.085938 77.816406 95.34375 78.203125 95.570312 C 78.59375 95.796875 79 95.988281 79.421875 96.144531 C 79.84375 96.296875 80.273438 96.414062 80.714844 96.492188 C 81.160156 96.570312 81.605469 96.609375 82.054688 96.605469 L 85.597656 96.605469 C 86.074219 96.609375 86.546875 96.632812 87.019531 96.679688 C 87.492188 96.726562 87.960938 96.796875 88.429688 96.886719 C 88.894531 96.980469 89.355469 97.097656 89.8125 97.234375 C 90.265625 97.375 90.710938 97.53125 91.152344 97.714844 C 91.589844 97.898438 92.019531 98.101562 92.4375 98.324219 C 92.855469 98.546875 93.265625 98.792969 93.660156 99.054688 C 94.054688 99.320312 94.4375 99.601562 94.804688 99.90625 C 95.171875 100.207031 95.523438 100.523438 95.859375 100.859375 C 96.195312 101.195312 96.511719 101.546875 96.8125 101.914062 C 97.117188 102.28125 97.398438 102.664062 97.664062 103.058594 C 97.929688 103.453125 98.171875 103.859375 98.394531 104.28125 C 98.621094 104.699219 98.824219 105.128906 99.007812 105.566406 C 99.1875 106.007812 99.347656 106.453125 99.484375 106.90625 C 99.625 107.363281 99.742188 107.820312 99.835938 108.289062 C 99.925781 108.753906 99.996094 109.222656 100.042969 109.695312 C 100.09375 110.171875 100.117188 110.644531 100.117188 111.117188 L 100.117188 116.921875 C 100.121094 117.058594 100.113281 117.199219 100.089844 117.335938 C 100.066406 117.476562 100.03125 117.609375 99.980469 117.742188 C 99.929688 117.871094 99.867188 117.996094 99.792969 118.113281 C 99.71875 118.230469 99.632812 118.339844 99.535156 118.441406 C 99.4375 118.542969 99.332031 118.632812 99.214844 118.710938 C 99.101562 118.789062 98.976562 118.859375 98.847656 118.914062 C 98.71875 118.96875 98.585938 119.007812 98.449219 119.039062 C 98.3125 119.066406 98.175781 119.078125 98.035156 119.078125 C 97.894531 119.078125 97.757812 119.066406 97.617188 119.039062 C 97.480469 119.007812 97.347656 118.96875 97.21875 118.914062 C 97.089844 118.859375 96.96875 118.792969 96.851562 118.710938 C 96.738281 118.632812 96.632812 118.542969 96.535156 118.441406 C 96.4375 118.339844 96.351562 118.230469 96.277344 118.113281 C 96.203125 117.996094 96.140625 117.871094 96.089844 117.742188 C 96.039062 117.609375 96.003906 117.476562 95.980469 117.335938 C 95.957031 117.199219 95.949219 117.058594 95.953125 116.921875 L 95.953125 111.117188 C 95.953125 110.78125 95.9375 110.441406 95.902344 110.105469 C 95.867188 109.765625 95.820312 109.433594 95.75 109.101562 C 95.6875 108.765625 95.601562 108.4375 95.503906 108.117188 C 95.40625 107.789062 95.292969 107.472656 95.164062 107.160156 C 95.03125 106.847656 94.886719 106.539062 94.726562 106.242188 C 94.566406 105.941406 94.394531 105.652344 94.203125 105.371094 C 94.015625 105.089844 93.816406 104.816406 93.601562 104.554688 C 93.382812 104.292969 93.15625 104.042969 92.917969 103.804688 C 92.679688 103.5625 92.425781 103.335938 92.164062 103.121094 C 91.902344 102.90625 91.632812 102.703125 91.351562 102.515625 C 91.070312 102.328125 90.777344 102.152344 90.476562 101.992188 C 90.179688 101.832031 89.875 101.6875 89.5625 101.558594 C 89.25 101.429688 88.929688 101.3125 88.605469 101.214844 C 88.28125 101.117188 87.953125 101.035156 87.621094 100.96875 C 87.289062 100.902344 86.953125 100.851562 86.617188 100.820312 C 86.277344 100.785156 85.941406 100.765625 85.601562 100.765625 L 82.058594 100.765625 C 81.710938 100.769531 81.363281 100.753906 81.015625 100.726562 C 80.671875 100.695312 80.328125 100.652344 79.984375 100.589844 C 79.644531 100.53125 79.304688 100.457031 78.96875 100.367188 C 78.632812 100.273438 78.304688 100.171875 77.976562 100.050781 C 77.652344 99.929688 77.332031 99.796875 77.019531 99.648438 C 76.703125 99.5 76.398438 99.339844 76.097656 99.164062 C 75.796875 98.988281 75.507812 98.800781 75.226562 98.601562 C 74.941406 98.398438 74.667969 98.1875 74.40625 97.960938 C 74.140625 97.734375 73.886719 97.496094 73.644531 97.25 C 73.402344 97 73.171875 96.742188 72.949219 96.476562 C 72.730469 96.207031 72.523438 95.929688 72.328125 95.640625 C 72.132812 95.355469 71.949219 95.058594 71.78125 94.757812 C 71.613281 94.453125 71.457031 94.140625 71.316406 93.824219 C 71.175781 93.507812 71.046875 93.1875 70.933594 92.855469 C 70.820312 92.527344 70.726562 92.195312 70.640625 91.859375 C 70.558594 91.523438 70.492188 91.179688 70.4375 90.839844 L 68.9375 81.3125 C 68.878906 80.9375 68.855469 80.5625 68.871094 80.1875 C 68.886719 79.808594 68.9375 79.4375 69.027344 79.070312 C 69.117188 78.703125 69.242188 78.351562 69.398438 78.007812 C 69.558594 77.667969 69.75 77.34375 69.976562 77.039062 C 70.199219 76.738281 70.449219 76.457031 70.726562 76.203125 C 71.007812 75.949219 71.308594 75.726562 71.632812 75.53125 C 71.953125 75.339844 72.292969 75.179688 72.648438 75.050781 C 73.003906 74.925781 73.367188 74.835938 73.742188 74.78125 L 76.960938 74.308594 C 77.445312 74.242188 77.902344 74.101562 78.339844 73.894531 C 78.78125 73.6875 79.179688 73.421875 79.535156 73.09375 C 79.894531 72.765625 80.195312 72.390625 80.441406 71.972656 C 80.6875 71.554688 80.863281 71.109375 80.972656 70.636719 L 81.644531 67.808594 C 81.753906 67.34375 81.882812 66.878906 82.03125 66.421875 C 82.175781 65.96875 82.339844 65.515625 82.523438 65.070312 C 82.703125 64.628906 82.90625 64.191406 83.121094 63.765625 C 83.335938 63.335938 83.570312 62.917969 83.820312 62.507812 C 84.070312 62.097656 84.335938 61.699219 84.617188 61.308594 C 84.898438 60.921875 85.195312 60.546875 85.507812 60.179688 C 85.820312 59.8125 86.144531 59.460938 86.484375 59.125 C 86.820312 58.785156 87.175781 58.457031 87.539062 58.148438 C 87.90625 57.835938 88.28125 57.539062 88.671875 57.257812 C 89.058594 56.976562 89.457031 56.710938 89.867188 56.460938 C 90.277344 56.210938 90.695312 55.976562 91.125 55.761719 C 91.550781 55.542969 91.988281 55.34375 92.433594 55.164062 C 92.875 54.980469 93.328125 54.816406 93.78125 54.667969 C 94.242188 54.523438 94.703125 54.394531 95.167969 54.285156 C 95.636719 54.175781 96.109375 54.085938 96.582031 54.011719 C 97.054688 53.9375 97.53125 53.882812 98.011719 53.851562 L 101.703125 53.574219 L 101.703125 42.335938 C 101.703125 42.175781 101.71875 42.019531 101.757812 41.863281 C 101.792969 41.707031 101.84375 41.558594 101.914062 41.414062 C 101.984375 41.273438 102.070312 41.136719 102.171875 41.015625 C 102.273438 40.890625 102.390625 40.78125 102.515625 40.683594 C 102.640625 40.585938 102.777344 40.503906 102.921875 40.4375 C 103.070312 40.371094 103.21875 40.324219 103.375 40.292969 C 103.53125 40.261719 103.691406 40.25 103.851562 40.253906 C 104.007812 40.257812 104.167969 40.28125 104.320312 40.320312 C 104.722656 40.433594 114.300781 43.054688 123.972656 51.144531 C 126.769531 53.464844 129.304688 56.042969 131.574219 58.882812 C 133.847656 61.71875 135.804688 64.757812 137.453125 67.996094 C 141.515625 76.015625 143.570312 85.207031 143.570312 95.320312 Z M 51.324219 42.117188 C 51.175781 41.789062 51.007812 41.476562 50.816406 41.171875 C 50.625 40.867188 50.410156 40.578125 50.175781 40.308594 C 49.941406 40.035156 49.6875 39.78125 49.417969 39.546875 C 49.148438 39.3125 48.859375 39.097656 48.558594 38.902344 C 48.257812 38.710938 47.941406 38.539062 47.613281 38.390625 C 47.289062 38.242188 46.953125 38.117188 46.605469 38.019531 C 46.261719 37.921875 45.910156 37.847656 45.554688 37.796875 C 45.199219 37.75 44.84375 37.726562 44.484375 37.730469 C 44.125 37.734375 43.765625 37.765625 43.414062 37.820312 C 43.058594 37.875 42.710938 37.957031 42.367188 38.0625 C 42.023438 38.167969 41.691406 38.300781 41.367188 38.453125 C 41.042969 38.609375 40.730469 38.785156 40.433594 38.984375 C 40.132812 39.1875 39.851562 39.40625 39.585938 39.648438 C 39.320312 39.886719 39.074219 40.148438 38.84375 40.421875 C 38.617188 40.699219 38.410156 40.992188 38.222656 41.296875 C 38.035156 41.605469 37.875 41.925781 37.734375 42.257812 C 37.679688 42.382812 37.640625 42.511719 37.613281 42.644531 C 37.585938 42.777344 37.570312 42.914062 37.570312 43.050781 C 37.566406 43.1875 37.578125 43.324219 37.605469 43.457031 C 37.632812 43.589844 37.667969 43.722656 37.71875 43.847656 C 37.773438 43.976562 37.835938 44.09375 37.910156 44.210938 C 37.984375 44.324219 38.070312 44.429688 38.167969 44.527344 C 38.261719 44.625 38.367188 44.710938 38.480469 44.789062 C 38.59375 44.863281 38.710938 44.929688 38.839844 44.984375 C 39.097656 45.09375 39.367188 45.148438 39.648438 45.148438 C 39.855469 45.148438 40.054688 45.121094 40.253906 45.0625 C 40.453125 45.003906 40.636719 44.917969 40.808594 44.804688 C 40.980469 44.691406 41.132812 44.554688 41.265625 44.398438 C 41.394531 44.242188 41.5 44.066406 41.582031 43.875 C 41.703125 43.585938 41.867188 43.320312 42.070312 43.074219 C 42.269531 42.828125 42.5 42.621094 42.765625 42.445312 C 43.027344 42.269531 43.308594 42.132812 43.609375 42.039062 C 43.914062 41.945312 44.222656 41.898438 44.539062 41.894531 C 44.855469 41.890625 45.164062 41.933594 45.46875 42.019531 C 45.773438 42.105469 46.058594 42.234375 46.324219 42.40625 C 46.589844 42.578125 46.828125 42.78125 47.03125 43.023438 C 47.238281 43.261719 47.40625 43.523438 47.535156 43.8125 C 47.589844 43.9375 47.660156 44.054688 47.738281 44.167969 C 47.816406 44.28125 47.90625 44.382812 48.003906 44.476562 C 48.105469 44.570312 48.210938 44.652344 48.328125 44.726562 C 48.441406 44.800781 48.5625 44.859375 48.691406 44.910156 C 48.820312 44.957031 48.953125 44.992188 49.085938 45.015625 C 49.21875 45.039062 49.355469 45.050781 49.492188 45.046875 C 49.628906 45.042969 49.765625 45.023438 49.898438 44.996094 C 50.03125 44.964844 50.160156 44.921875 50.285156 44.867188 C 50.410156 44.8125 50.527344 44.742188 50.640625 44.664062 C 50.75 44.585938 50.851562 44.496094 50.945312 44.398438 C 51.039062 44.296875 51.125 44.191406 51.195312 44.074219 C 51.269531 43.960938 51.332031 43.835938 51.378906 43.710938 C 51.429688 43.582031 51.464844 43.453125 51.488281 43.316406 C 51.511719 43.179688 51.519531 43.046875 51.515625 42.910156 C 51.511719 42.773438 51.496094 42.636719 51.464844 42.503906 C 51.4375 42.371094 51.390625 42.242188 51.335938 42.117188 Z M 100.148438 71.726562 C 100.015625 71.433594 99.863281 71.148438 99.6875 70.875 C 99.515625 70.605469 99.324219 70.34375 99.113281 70.101562 C 98.902344 69.855469 98.675781 69.628906 98.429688 69.417969 C 98.1875 69.207031 97.929688 69.015625 97.65625 68.839844 C 97.386719 68.664062 97.101562 68.511719 96.808594 68.378906 C 96.515625 68.246094 96.210938 68.132812 95.902344 68.046875 C 95.59375 67.957031 95.277344 67.890625 94.957031 67.847656 C 94.636719 67.804688 94.316406 67.785156 93.992188 67.789062 C 93.671875 67.789062 93.351562 67.816406 93.03125 67.867188 C 92.710938 67.917969 92.398438 67.992188 92.089844 68.085938 C 91.78125 68.179688 91.484375 68.296875 91.191406 68.4375 C 90.898438 68.578125 90.621094 68.734375 90.351562 68.914062 C 90.085938 69.09375 89.832031 69.292969 89.59375 69.507812 C 89.351562 69.726562 89.128906 69.960938 88.925781 70.207031 C 88.71875 70.457031 88.53125 70.71875 88.363281 70.992188 C 88.195312 71.269531 88.050781 71.554688 87.925781 71.855469 C 87.867188 71.980469 87.820312 72.113281 87.789062 72.25 C 87.753906 72.382812 87.734375 72.523438 87.730469 72.664062 C 87.726562 72.800781 87.734375 72.941406 87.757812 73.078125 C 87.78125 73.21875 87.820312 73.351562 87.867188 73.480469 C 87.917969 73.613281 87.980469 73.738281 88.058594 73.855469 C 88.132812 73.972656 88.21875 74.082031 88.316406 74.183594 C 88.414062 74.28125 88.519531 74.375 88.632812 74.453125 C 88.75 74.53125 88.871094 74.597656 89 74.652344 C 89.128906 74.707031 89.265625 74.75 89.398438 74.773438 C 89.539062 74.804688 89.675781 74.816406 89.816406 74.816406 C 89.957031 74.816406 90.09375 74.804688 90.230469 74.773438 C 90.367188 74.746094 90.5 74.703125 90.628906 74.648438 C 90.757812 74.59375 90.882812 74.527344 90.996094 74.449219 C 91.109375 74.367188 91.21875 74.277344 91.3125 74.179688 C 91.410156 74.078125 91.496094 73.96875 91.570312 73.847656 C 91.648438 73.730469 91.710938 73.605469 91.757812 73.476562 C 91.855469 73.25 91.980469 73.046875 92.132812 72.859375 C 92.289062 72.671875 92.46875 72.507812 92.671875 72.371094 C 92.875 72.238281 93.089844 72.132812 93.324219 72.0625 C 93.554688 71.988281 93.796875 71.953125 94.039062 71.949219 C 94.28125 71.945312 94.519531 71.980469 94.753906 72.046875 C 94.988281 72.113281 95.210938 72.210938 95.414062 72.34375 C 95.617188 72.476562 95.800781 72.632812 95.960938 72.820312 C 96.117188 73.003906 96.25 73.207031 96.347656 73.429688 C 96.402344 73.554688 96.472656 73.671875 96.550781 73.78125 C 96.628906 73.894531 96.71875 73.996094 96.820312 74.089844 C 96.917969 74.183594 97.023438 74.265625 97.140625 74.339844 C 97.257812 74.414062 97.378906 74.472656 97.507812 74.523438 C 97.632812 74.570312 97.765625 74.605469 97.898438 74.628906 C 98.035156 74.652344 98.171875 74.664062 98.304688 74.65625 C 98.445312 74.65625 98.578125 74.636719 98.710938 74.605469 C 98.84375 74.578125 98.972656 74.53125 99.097656 74.476562 C 99.222656 74.421875 99.339844 74.351562 99.453125 74.273438 C 99.5625 74.195312 99.664062 74.105469 99.761719 74.007812 C 99.855469 73.90625 99.9375 73.800781 100.007812 73.683594 C 100.082031 73.570312 100.144531 73.445312 100.191406 73.320312 C 100.242188 73.191406 100.277344 73.0625 100.296875 72.925781 C 100.320312 72.789062 100.332031 72.65625 100.328125 72.519531 C 100.324219 72.382812 100.304688 72.246094 100.277344 72.113281 C 100.246094 71.980469 100.203125 71.851562 100.148438 71.726562 Z M 86.449219 33.40625 C 86.335938 33.480469 86.21875 33.546875 86.089844 33.597656 C 85.964844 33.652344 85.835938 33.691406 85.703125 33.71875 C 85.570312 33.75 85.433594 33.761719 85.296875 33.765625 C 85.160156 33.765625 85.023438 33.75 84.890625 33.726562 C 84.757812 33.703125 84.625 33.664062 84.5 33.609375 C 84.371094 33.558594 84.25 33.496094 84.136719 33.421875 C 84.023438 33.347656 83.917969 33.261719 83.820312 33.164062 C 83.722656 33.070312 83.636719 32.964844 83.558594 32.851562 C 83.046875 32.089844 82.484375 31.363281 81.875 30.671875 C 81.269531 29.980469 80.621094 29.332031 79.929688 28.722656 C 79.238281 28.117188 78.515625 27.554688 77.75 27.039062 C 76.992188 26.523438 76.199219 26.054688 75.378906 25.640625 C 74.554688 25.226562 73.710938 24.867188 72.84375 24.558594 C 71.976562 24.25 71.09375 24 70.195312 23.804688 C 69.296875 23.609375 68.390625 23.472656 67.472656 23.394531 C 66.554688 23.3125 65.636719 23.292969 64.71875 23.332031 L 44.078125 24.125 C 43.707031 24.140625 43.339844 24.183594 42.976562 24.253906 C 42.609375 24.324219 42.253906 24.421875 41.90625 24.546875 C 41.554688 24.671875 41.21875 24.820312 40.890625 24.996094 C 40.5625 25.171875 40.253906 25.371094 39.957031 25.59375 C 39.660156 25.816406 39.382812 26.058594 39.121094 26.324219 C 38.859375 26.589844 38.621094 26.871094 38.40625 27.171875 C 38.1875 27.472656 37.992188 27.789062 37.824219 28.117188 C 37.65625 28.445312 37.507812 28.789062 37.390625 29.140625 L 34.960938 36.429688 C 34.804688 36.898438 34.625 37.355469 34.410156 37.796875 C 34.199219 38.242188 33.960938 38.667969 33.691406 39.082031 C 33.425781 39.492188 33.132812 39.886719 32.816406 40.265625 C 32.496094 40.640625 32.15625 40.992188 31.792969 41.324219 C 31.429688 41.65625 31.050781 41.960938 30.648438 42.246094 C 30.246094 42.527344 29.828125 42.785156 29.390625 43.015625 C 28.957031 43.242188 28.507812 43.445312 28.046875 43.617188 C 27.585938 43.789062 27.117188 43.929688 26.640625 44.039062 L 22.878906 44.929688 L 22.878906 45 C 22.882812 45.898438 22.796875 46.785156 22.625 47.667969 C 22.453125 48.546875 22.199219 49.402344 21.859375 50.234375 C 21.519531 51.066406 21.105469 51.855469 20.609375 52.605469 C 20.117188 53.355469 19.554688 54.050781 18.925781 54.691406 C 17.960938 55.679688 16.875 56.503906 15.664062 57.164062 C 14.449219 57.828125 13.167969 58.296875 11.816406 58.570312 L 12.296875 60.78125 C 12.375 61.132812 12.46875 61.480469 12.578125 61.820312 C 12.683594 62.164062 12.804688 62.503906 12.941406 62.835938 C 13.078125 63.167969 13.226562 63.496094 13.390625 63.816406 C 13.554688 64.136719 13.730469 64.449219 13.921875 64.753906 C 14.109375 65.058594 14.3125 65.355469 14.527344 65.644531 C 14.742188 65.929688 14.96875 66.210938 15.203125 66.480469 C 15.445312 66.75 15.691406 67.007812 15.953125 67.257812 C 16.210938 67.503906 16.480469 67.742188 16.761719 67.96875 C 17.039062 68.191406 17.328125 68.40625 17.628906 68.605469 C 17.925781 68.808594 18.230469 68.996094 18.546875 69.171875 C 18.859375 69.347656 19.179688 69.507812 19.507812 69.65625 C 19.832031 69.804688 20.167969 69.941406 20.503906 70.0625 C 20.84375 70.179688 21.1875 70.289062 21.535156 70.378906 C 21.882812 70.46875 22.234375 70.546875 22.585938 70.609375 C 22.941406 70.671875 23.296875 70.71875 23.65625 70.75 C 24.011719 70.78125 24.371094 70.800781 24.730469 70.800781 L 44.980469 70.800781 C 45.769531 69.320312 46.742188 67.964844 47.894531 66.742188 L 47.929688 66.703125 C 55.492188 58.472656 59.324219 49.578125 59.324219 40.234375 C 59.328125 40.101562 59.34375 39.96875 59.375 39.839844 C 59.40625 39.710938 59.449219 39.585938 59.503906 39.460938 C 59.558594 39.339844 59.625 39.226562 59.699219 39.117188 C 59.777344 39.007812 59.863281 38.90625 59.960938 38.8125 C 60.054688 38.71875 60.160156 38.636719 60.273438 38.5625 C 60.382812 38.492188 60.5 38.429688 60.625 38.378906 C 60.75 38.328125 60.875 38.292969 61.007812 38.265625 C 61.140625 38.242188 61.273438 38.230469 61.40625 38.230469 C 61.539062 38.230469 61.671875 38.242188 61.800781 38.265625 C 61.933594 38.292969 62.0625 38.328125 62.183594 38.378906 C 62.308594 38.429688 62.425781 38.492188 62.539062 38.5625 C 62.652344 38.636719 62.753906 38.71875 62.851562 38.8125 C 62.945312 38.90625 63.035156 39.007812 63.109375 39.117188 C 63.1875 39.226562 63.253906 39.339844 63.308594 39.460938 C 63.359375 39.585938 63.40625 39.710938 63.433594 39.839844 C 63.464844 39.96875 63.480469 40.101562 63.488281 40.234375 C 63.488281 50.664062 59.269531 60.53125 50.945312 69.574219 C 50.929688 69.597656 50.90625 69.617188 50.886719 69.636719 C 49.765625 70.835938 48.871094 72.1875 48.203125 73.691406 C 48.078125 73.96875 47.964844 74.253906 47.859375 74.539062 C 47.75 74.828125 47.65625 75.117188 47.566406 75.410156 C 47.476562 75.703125 47.398438 76 47.328125 76.296875 C 47.257812 76.59375 47.195312 76.894531 47.144531 77.195312 C 47.09375 77.496094 47.054688 77.800781 47.019531 78.105469 C 46.988281 78.410156 46.964844 78.714844 46.949219 79.019531 C 46.9375 79.324219 46.933594 79.632812 46.9375 79.9375 C 46.945312 80.242188 46.957031 80.546875 46.984375 80.851562 C 47.007812 81.15625 47.039062 81.460938 47.082031 81.765625 C 47.125 82.066406 47.179688 82.367188 47.242188 82.667969 C 47.304688 82.96875 47.375 83.265625 47.453125 83.5625 C 47.535156 83.855469 47.625 84.148438 47.722656 84.4375 C 47.820312 84.726562 47.929688 85.015625 48.046875 85.296875 C 48.160156 85.578125 48.285156 85.859375 48.421875 86.132812 C 48.554688 86.410156 48.695312 86.679688 48.847656 86.945312 C 48.996094 87.210938 49.15625 87.476562 49.320312 87.730469 C 49.488281 87.988281 49.664062 88.238281 49.84375 88.484375 C 50.027344 88.730469 50.21875 88.96875 50.414062 89.203125 C 50.613281 89.4375 50.816406 89.664062 51.027344 89.886719 C 51.238281 90.109375 51.457031 90.320312 51.683594 90.53125 C 51.90625 90.738281 52.136719 90.9375 52.375 91.132812 C 52.613281 91.324219 52.855469 91.507812 53.105469 91.6875 C 53.351562 91.867188 53.605469 92.039062 53.867188 92.199219 C 54.125 92.359375 54.390625 92.515625 54.65625 92.664062 C 54.925781 92.808594 55.199219 92.945312 55.476562 93.074219 C 55.753906 93.203125 56.035156 93.324219 56.320312 93.4375 C 56.605469 93.546875 56.894531 93.648438 57.1875 93.742188 C 57.476562 93.835938 57.769531 93.921875 58.066406 93.996094 C 58.363281 94.070312 58.664062 94.136719 58.960938 94.195312 C 59.265625 94.25 59.566406 94.300781 59.867188 94.335938 C 60.171875 94.375 60.476562 94.40625 60.78125 94.421875 C 61.085938 94.441406 61.394531 94.453125 61.699219 94.453125 C 61.835938 94.453125 61.972656 94.464844 62.105469 94.492188 C 62.242188 94.519531 62.371094 94.558594 62.496094 94.609375 C 62.625 94.664062 62.742188 94.726562 62.855469 94.804688 C 62.96875 94.878906 63.074219 94.964844 63.171875 95.0625 C 63.269531 95.160156 63.355469 95.265625 63.429688 95.378906 C 63.507812 95.492188 63.570312 95.609375 63.625 95.738281 C 63.675781 95.863281 63.714844 95.996094 63.742188 96.128906 C 63.769531 96.261719 63.78125 96.398438 63.78125 96.535156 C 63.78125 96.671875 63.769531 96.808594 63.742188 96.941406 C 63.714844 97.074219 63.675781 97.207031 63.625 97.332031 C 63.570312 97.457031 63.507812 97.578125 63.429688 97.691406 C 63.355469 97.804688 63.269531 97.910156 63.171875 98.007812 C 63.074219 98.105469 62.96875 98.191406 62.855469 98.265625 C 62.742188 98.34375 62.625 98.40625 62.496094 98.460938 C 62.371094 98.511719 62.242188 98.550781 62.105469 98.578125 C 61.972656 98.605469 61.835938 98.617188 61.699219 98.617188 C 59.445312 98.621094 57.261719 98.230469 55.148438 97.449219 L 55.148438 110.59375 C 55.148438 114.964844 57.078125 122.007812 62.566406 127.484375 C 62.667969 127.578125 62.757812 127.683594 62.835938 127.796875 C 62.917969 127.914062 62.984375 128.03125 63.039062 128.160156 C 63.09375 128.289062 63.136719 128.421875 63.167969 128.554688 C 63.195312 128.691406 63.210938 128.828125 63.210938 128.96875 C 63.214844 129.105469 63.203125 129.242188 63.175781 129.382812 C 63.152344 129.515625 63.113281 129.648438 63.058594 129.777344 C 63.007812 129.90625 62.941406 130.03125 62.867188 130.144531 C 62.789062 130.261719 62.703125 130.367188 62.601562 130.464844 C 62.503906 130.5625 62.398438 130.652344 62.28125 130.726562 C 62.167969 130.804688 62.042969 130.871094 61.914062 130.921875 C 61.789062 130.976562 61.65625 131.015625 61.519531 131.039062 C 61.382812 131.066406 61.242188 131.078125 61.105469 131.074219 C 60.964844 131.074219 60.828125 131.058594 60.691406 131.03125 C 60.558594 131 60.425781 130.957031 60.296875 130.902344 C 60.171875 130.847656 60.050781 130.78125 59.9375 130.699219 C 59.820312 130.621094 59.71875 130.53125 59.621094 130.429688 C 51.398438 122.203125 50.984375 112.472656 50.984375 110.59375 L 50.984375 95.296875 C 50.1875 94.75 49.4375 94.148438 48.734375 93.488281 C 48.03125 92.828125 47.382812 92.117188 46.789062 91.355469 C 46.195312 90.597656 45.664062 89.796875 45.191406 88.953125 C 44.71875 88.113281 44.3125 87.242188 43.976562 86.335938 C 43.636719 85.433594 43.367188 84.507812 43.171875 83.5625 C 42.976562 82.621094 42.851562 81.664062 42.800781 80.703125 C 42.75 79.738281 42.769531 78.777344 42.867188 77.816406 C 42.960938 76.859375 43.132812 75.910156 43.371094 74.976562 L 24.738281 74.976562 C 24.261719 74.972656 23.785156 74.953125 23.3125 74.910156 C 22.835938 74.867188 22.363281 74.804688 21.890625 74.722656 C 21.421875 74.640625 20.957031 74.539062 20.496094 74.417969 C 20.035156 74.296875 19.578125 74.15625 19.128906 73.996094 C 18.679688 73.835938 18.238281 73.65625 17.804688 73.460938 C 17.367188 73.261719 16.945312 73.046875 16.527344 72.816406 C 16.109375 72.582031 15.703125 72.332031 15.308594 72.066406 C 14.914062 71.796875 14.53125 71.515625 14.160156 71.214844 C 13.789062 70.917969 13.429688 70.601562 13.085938 70.273438 C 12.738281 69.945312 12.40625 69.601562 12.09375 69.242188 C 11.777344 68.886719 11.476562 68.515625 11.191406 68.132812 C 10.90625 67.75 10.636719 67.355469 10.386719 66.953125 C 10.132812 66.546875 9.898438 66.132812 9.683594 65.707031 C 9.464844 65.28125 9.265625 64.847656 9.085938 64.40625 C 8.90625 63.964844 8.742188 63.515625 8.601562 63.0625 C 8.460938 62.605469 8.335938 62.144531 8.234375 61.679688 L 7.269531 57.257812 C 7.269531 57.242188 7.269531 57.222656 7.269531 57.207031 L 5.546875 49.359375 C 5.484375 49.070312 5.453125 48.777344 5.445312 48.480469 C 5.441406 48.1875 5.464844 47.894531 5.515625 47.601562 C 5.566406 47.3125 5.648438 47.027344 5.753906 46.753906 C 5.859375 46.476562 5.992188 46.214844 6.148438 45.964844 C 6.304688 45.714844 6.484375 45.484375 6.6875 45.265625 C 6.890625 45.050781 7.113281 44.859375 7.351562 44.6875 C 7.59375 44.515625 7.84375 44.367188 8.113281 44.242188 C 8.382812 44.121094 8.660156 44.023438 8.949219 43.953125 L 20.148438 41.300781 L 20.238281 41.277344 L 25.679688 39.988281 C 26.296875 39.84375 26.882812 39.625 27.445312 39.328125 C 28.003906 39.035156 28.515625 38.671875 28.984375 38.246094 C 29.449219 37.820312 29.855469 37.339844 30.199219 36.808594 C 30.542969 36.277344 30.8125 35.710938 31.007812 35.109375 L 33.445312 27.820312 C 33.628906 27.265625 33.855469 26.734375 34.121094 26.21875 C 34.386719 25.699219 34.6875 25.207031 35.03125 24.734375 C 35.371094 24.265625 35.742188 23.820312 36.152344 23.40625 C 36.558594 22.992188 36.996094 22.609375 37.460938 22.261719 C 37.925781 21.914062 38.414062 21.601562 38.925781 21.328125 C 39.4375 21.050781 39.96875 20.816406 40.515625 20.621094 C 41.0625 20.425781 41.621094 20.273438 42.191406 20.164062 C 42.761719 20.050781 43.339844 19.984375 43.917969 19.960938 L 64.5625 19.171875 C 65.65625 19.125 66.75 19.148438 67.84375 19.242188 C 68.933594 19.339844 70.015625 19.5 71.085938 19.734375 C 72.15625 19.964844 73.207031 20.265625 74.242188 20.632812 C 75.273438 20.996094 76.28125 21.425781 77.257812 21.921875 C 78.234375 22.414062 79.179688 22.96875 80.085938 23.585938 C 80.992188 24.199219 81.859375 24.867188 82.679688 25.59375 C 83.5 26.316406 84.273438 27.089844 85 27.914062 C 85.71875 28.738281 86.390625 29.601562 87 30.511719 C 87.078125 30.625 87.144531 30.742188 87.195312 30.871094 C 87.25 30.996094 87.289062 31.125 87.320312 31.257812 C 87.347656 31.394531 87.359375 31.53125 87.359375 31.664062 C 87.363281 31.804688 87.351562 31.9375 87.324219 32.070312 C 87.296875 32.207031 87.261719 32.335938 87.210938 32.464844 C 87.15625 32.589844 87.09375 32.710938 87.019531 32.824219 C 86.945312 32.9375 86.859375 33.046875 86.761719 33.140625 C 86.667969 33.242188 86.5625 33.328125 86.449219 33.40625 Z M 18.667969 45.925781 L 9.90625 48.003906 C 9.804688 48.03125 9.722656 48.089844 9.664062 48.179688 C 9.609375 48.269531 9.59375 48.367188 9.613281 48.472656 L 10.929688 54.511719 C 11.433594 54.410156 11.929688 54.265625 12.414062 54.082031 C 12.894531 53.898438 13.359375 53.679688 13.808594 53.421875 C 14.257812 53.164062 14.679688 52.875 15.085938 52.550781 C 15.484375 52.226562 15.859375 51.871094 16.207031 51.488281 C 16.550781 51.105469 16.867188 50.695312 17.148438 50.261719 C 17.425781 49.828125 17.671875 49.375 17.882812 48.90625 C 18.089844 48.433594 18.261719 47.945312 18.394531 47.445312 C 18.523438 46.949219 18.617188 46.441406 18.667969 45.925781 Z M 18.667969 45.925781 " fill-opacity="1" fill-rule="nonzero"/><g fill="#000000" fill-opacity="1"><g transform="translate(171.143518, 48.262241)"><g><path d="M 17.0625 -4.234375 L 8.109375 -4.234375 L 6.671875 0 L 0.546875 0 L 9.234375 -24 L 16 -24 L 24.6875 0 L 18.5 0 Z M 15.5625 -8.75 L 12.578125 -17.53125 L 9.640625 -8.75 Z M 15.5625 -8.75 "/></g></g></g><g fill="#000000" fill-opacity="1"><g transform="translate(198.973212, 48.262241)"><g><path d="M 23.59375 0 L 17.75 0 L 7.96875 -14.796875 L 7.96875 0 L 2.125 0 L 2.125 -24 L 7.96875 -24 L 17.75 -9.125 L 17.75 -24 L 23.59375 -24 Z M 23.59375 0 "/></g></g></g><g fill="#000000" fill-opacity="1"><g transform="translate(227.315731, 48.262241)"><g><path d="M 7.96875 -24 L 7.96875 0 L 2.125 0 L 2.125 -24 Z M 7.96875 -24 "/></g></g></g><g fill="#000000" fill-opacity="1"><g transform="translate(240.03427, 48.262241)"><g><path d="M 29.296875 -24 L 29.296875 0 L 23.453125 0 L 23.453125 -14.390625 L 18.078125 0 L 13.375 0 L 7.96875 -14.421875 L 7.96875 0 L 2.125 0 L 2.125 -24 L 9.03125 -24 L 15.765625 -7.390625 L 22.421875 -24 Z M 29.296875 -24 "/></g></g></g><g fill="#000000" fill-opacity="1"><g transform="translate(274.052016, 48.262241)"><g><path d="M 17.0625 -4.234375 L 8.109375 -4.234375 L 6.671875 0 L 0.546875 0 L 9.234375 -24 L 16 -24 L 24.6875 0 L 18.5 0 Z M 15.5625 -8.75 L 12.578125 -17.53125 L 9.640625 -8.75 Z M 15.5625 -8.75 "/></g></g></g><g fill="#000000" fill-opacity="1"><g transform="translate(301.881706, 48.262241)"><g><path d="M 7.96875 -4.515625 L 15.625 -4.515625 L 15.625 0 L 2.125 0 L 2.125 -24 L 7.96875 -24 Z M 7.96875 -4.515625 "/></g></g></g><g fill="#000000" fill-opacity="1"><g transform="translate(171.143518, 85.6951)"><g><path d="M 1.125 -12.03125 C 1.125 -14.40625 1.632812 -16.519531 2.65625 -18.375 C 3.6875 -20.226562 5.117188 -21.671875 6.953125 -22.703125 C 8.785156 -23.742188 10.867188 -24.265625 13.203125 -24.265625 C 16.046875 -24.265625 18.484375 -23.515625 20.515625 -22.015625 C 22.546875 -20.515625 23.898438 -18.460938 24.578125 -15.859375 L 18.15625 -15.859375 C 17.675781 -16.867188 16.992188 -17.632812 16.109375 -18.15625 C 15.234375 -18.675781 14.238281 -18.9375 13.125 -18.9375 C 11.320312 -18.9375 9.863281 -18.304688 8.75 -17.046875 C 7.632812 -15.796875 7.078125 -14.125 7.078125 -12.03125 C 7.078125 -9.9375 7.632812 -8.257812 8.75 -7 C 9.863281 -5.75 11.320312 -5.125 13.125 -5.125 C 14.238281 -5.125 15.234375 -5.382812 16.109375 -5.90625 C 16.992188 -6.4375 17.675781 -7.203125 18.15625 -8.203125 L 24.578125 -8.203125 C 23.898438 -5.609375 22.546875 -3.5625 20.515625 -2.0625 C 18.484375 -0.570312 16.046875 0.171875 13.203125 0.171875 C 10.867188 0.171875 8.785156 -0.34375 6.953125 -1.375 C 5.117188 -2.414062 3.6875 -3.859375 2.65625 -5.703125 C 1.632812 -7.554688 1.125 -9.664062 1.125 -12.03125 Z M 1.125 -12.03125 "/></g></g></g><g fill="#000000" fill-opacity="1"><g transform="translate(199.827914, 85.6951)"><g><path d="M 17.0625 -4.234375 L 8.109375 -4.234375 L 6.671875 0 L 0.546875 0 L 9.234375 -24 L 16 -24 L 24.6875 0 L 18.5 0 Z M 15.5625 -8.75 L 12.578125 -17.53125 L 9.640625 -8.75 Z M 15.5625 -8.75 "/></g></g></g><g fill="#000000" fill-opacity="1"><g transform="translate(227.657608, 85.6951)"><g><path d="M 14.359375 0 L 9.375 -9.0625 L 7.96875 -9.0625 L 7.96875 0 L 2.125 0 L 2.125 -24 L 11.9375 -24 C 13.820312 -24 15.429688 -23.664062 16.765625 -23 C 18.097656 -22.34375 19.09375 -21.4375 19.75 -20.28125 C 20.414062 -19.132812 20.75 -17.851562 20.75 -16.4375 C 20.75 -14.84375 20.296875 -13.421875 19.390625 -12.171875 C 18.492188 -10.921875 17.171875 -10.03125 15.421875 -9.5 L 20.953125 0 Z M 7.96875 -13.203125 L 11.59375 -13.203125 C 12.664062 -13.203125 13.46875 -13.460938 14 -13.984375 C 14.53125 -14.503906 14.796875 -15.242188 14.796875 -16.203125 C 14.796875 -17.117188 14.53125 -17.835938 14 -18.359375 C 13.46875 -18.878906 12.664062 -19.140625 11.59375 -19.140625 L 7.96875 -19.140625 Z M 7.96875 -13.203125 "/></g></g></g><g fill="#000000" fill-opacity="1"><g transform="translate(252.581316, 85.6951)"><g><path d="M 7.96875 -19.3125 L 7.96875 -14.46875 L 15.796875 -14.46875 L 15.796875 -9.953125 L 7.96875 -9.953125 L 7.96875 -4.6875 L 16.8125 -4.6875 L 16.8125 0 L 2.125 0 L 2.125 -24 L 16.8125 -24 L 16.8125 -19.3125 Z M 7.96875 -19.3125 "/></g></g></g><g fill="#000000" fill-opacity="1"><g transform="translate(171.143518, 123.127959)"><g><path d="M 1.125 -12.03125 C 1.125 -14.40625 1.632812 -16.519531 2.65625 -18.375 C 3.6875 -20.226562 5.117188 -21.671875 6.953125 -22.703125 C 8.785156 -23.742188 10.867188 -24.265625 13.203125 -24.265625 C 16.046875 -24.265625 18.484375 -23.515625 20.515625 -22.015625 C 22.546875 -20.515625 23.898438 -18.460938 24.578125 -15.859375 L 18.15625 -15.859375 C 17.675781 -16.867188 16.992188 -17.632812 16.109375 -18.15625 C 15.234375 -18.675781 14.238281 -18.9375 13.125 -18.9375 C 11.320312 -18.9375 9.863281 -18.304688 8.75 -17.046875 C 7.632812 -15.796875 7.078125 -14.125 7.078125 -12.03125 C 7.078125 -9.9375 7.632812 -8.257812 8.75 -7 C 9.863281 -5.75 11.320312 -5.125 13.125 -5.125 C 14.238281 -5.125 15.234375 -5.382812 16.109375 -5.90625 C 16.992188 -6.4375 17.675781 -7.203125 18.15625 -8.203125 L 24.578125 -8.203125 C 23.898438 -5.609375 22.546875 -3.5625 20.515625 -2.0625 C 18.484375 -0.570312 16.046875 0.171875 13.203125 0.171875 C 10.867188 0.171875 8.785156 -0.34375 6.953125 -1.375 C 5.117188 -2.414062 3.6875 -3.859375 2.65625 -5.703125 C 1.632812 -7.554688 1.125 -9.664062 1.125 -12.03125 Z M 1.125 -12.03125 "/></g></g></g><g fill="#000000" fill-opacity="1"><g transform="translate(199.827914, 123.127959)"><g><path d="M 7.96875 -19.3125 L 7.96875 -14.46875 L 15.796875 -14.46875 L 15.796875 -9.953125 L 7.96875 -9.953125 L 7.96875 -4.6875 L 16.8125 -4.6875 L 16.8125 0 L 2.125 0 L 2.125 -24 L 16.8125 -24 L 16.8125 -19.3125 Z M 7.96875 -19.3125 "/></g></g></g><g fill="#000000" fill-opacity="1"><g transform="translate(220.95674, 123.127959)"><g><path d="M 23.59375 0 L 17.75 0 L 7.96875 -14.796875 L 7.96875 0 L 2.125 0 L 2.125 -24 L 7.96875 -24 L 17.75 -9.125 L 17.75 -24 L 23.59375 -24 Z M 23.59375 0 "/></g></g></g><g fill="#000000" fill-opacity="1"><g transform="translate(249.299261, 123.127959)"><g><path d="M 19.390625 -24 L 19.390625 -19.3125 L 13.03125 -19.3125 L 13.03125 0 L 7.171875 0 L 7.171875 -19.3125 L 0.828125 -19.3125 L 0.828125 -24 Z M 19.390625 -24 "/></g></g></g><g fill="#000000" fill-opacity="1"><g transform="translate(272.137495, 123.127959)"><g><path d="M 7.96875 -19.3125 L 7.96875 -14.46875 L 15.796875 -14.46875 L 15.796875 -9.953125 L 7.96875 -9.953125 L 7.96875 -4.6875 L 16.8125 -4.6875 L 16.8125 0 L 2.125 0 L 2.125 -24 L 16.8125 -24 L 16.8125 -19.3125 Z M 7.96875 -19.3125 "/></g></g></g><g fill="#000000" fill-opacity="1"><g transform="translate(293.266325, 123.127959)"><g><path d="M 14.359375 0 L 9.375 -9.0625 L 7.96875 -9.0625 L 7.96875 0 L 2.125 0 L 2.125 -24 L 11.9375 -24 C 13.820312 -24 15.429688 -23.664062 16.765625 -23 C 18.097656 -22.34375 19.09375 -21.4375 19.75 -20.28125 C 20.414062 -19.132812 20.75 -17.851562 20.75 -16.4375 C 20.75 -14.84375 20.296875 -13.421875 19.390625 -12.171875 C 18.492188 -10.921875 17.171875 -10.03125 15.421875 -9.5 L 20.953125 0 Z M 7.96875 -13.203125 L 11.59375 -13.203125 C 12.664062 -13.203125 13.46875 -13.460938 14 -13.984375 C 14.53125 -14.503906 14.796875 -15.242188 14.796875 -16.203125 C 14.796875 -17.117188 14.53125 -17.835938 14 -18.359375 C 13.46875 -18.878906 12.664062 -19.140625 11.59375 -19.140625 L 7.96875 -19.140625 Z M 7.96875 -13.203125 "/></g></g></g></svg>