<svg xmlns="http://www.w3.org/2000/svg" xmlns:xlink="http://www.w3.org/1999/xlink" width="500" zoomAndPan="magnify" viewBox="0 0 375 374.999991" height="500" preserveAspectRatio="xMidYMid meet" version="1.0"><path fill="#000000" d="M 358.929688 238.304688 C 358.941406 238.65625 358.921875 239.003906 358.863281 239.347656 C 358.804688 239.691406 358.714844 240.027344 358.589844 240.355469 C 358.464844 240.683594 358.308594 240.992188 358.121094 241.289062 C 357.933594 241.585938 357.71875 241.859375 357.472656 242.109375 C 357.230469 242.363281 356.964844 242.585938 356.675781 242.785156 C 356.390625 242.984375 356.085938 243.152344 355.761719 243.289062 C 355.441406 243.425781 355.109375 243.527344 354.765625 243.597656 C 354.421875 243.667969 354.074219 243.703125 353.726562 243.703125 C 353.375 243.703125 353.027344 243.667969 352.6875 243.597656 C 352.34375 243.527344 352.011719 243.425781 351.6875 243.289062 C 351.367188 243.152344 351.0625 242.984375 350.773438 242.785156 C 350.484375 242.585938 350.21875 242.363281 349.976562 242.109375 C 349.734375 241.859375 349.519531 241.585938 349.332031 241.289062 C 349.144531 240.992188 348.988281 240.683594 348.863281 240.355469 C 348.738281 240.027344 348.644531 239.691406 348.589844 239.347656 C 348.53125 239.003906 348.507812 238.65625 348.519531 238.304688 C 348.519531 214.769531 343.789062 193.453125 334.472656 174.953125 C 330.699219 167.5 326.207031 160.503906 321.007812 153.964844 C 315.804688 147.425781 309.996094 141.476562 303.582031 136.125 C 291.871094 126.320312 278.898438 118.644531 264.664062 113.105469 L 264.664062 138.78125 C 264.664062 139.109375 264.632812 139.433594 264.570312 139.75 C 264.507812 140.070312 264.417969 140.382812 264.300781 140.6875 C 264.179688 140.988281 264.03125 141.277344 263.859375 141.554688 C 263.683594 141.828125 263.488281 142.085938 263.265625 142.324219 C 263.042969 142.5625 262.800781 142.777344 262.535156 142.96875 C 262.273438 143.164062 261.996094 143.328125 261.703125 143.46875 C 261.40625 143.609375 261.101562 143.722656 260.789062 143.804688 C 260.472656 143.886719 260.152344 143.941406 259.828125 143.964844 L 245.792969 145.019531 C 243.945312 145.15625 242.117188 145.433594 240.3125 145.859375 C 238.507812 146.285156 236.746094 146.847656 235.03125 147.550781 C 233.316406 148.257812 231.667969 149.089844 230.085938 150.058594 C 228.5 151.023438 227.003906 152.109375 225.59375 153.3125 C 224.183594 154.515625 222.875 155.824219 221.671875 157.234375 C 220.46875 158.644531 219.386719 160.140625 218.421875 161.726562 C 217.453125 163.308594 216.621094 164.957031 215.917969 166.671875 C 215.210938 168.390625 214.648438 170.148438 214.226562 171.953125 L 212.546875 179.019531 C 212.292969 180.113281 211.957031 181.179688 211.539062 182.222656 C 211.125 183.261719 210.632812 184.269531 210.066406 185.234375 C 209.5 186.203125 208.863281 187.125 208.160156 187.996094 C 207.457031 188.871094 206.691406 189.683594 205.863281 190.441406 C 205.035156 191.199219 204.15625 191.890625 203.226562 192.515625 C 202.292969 193.144531 201.320312 193.695312 200.308594 194.175781 C 199.292969 194.65625 198.25 195.054688 197.175781 195.378906 C 196.101562 195.699219 195.007812 195.941406 193.898438 196.101562 L 185.851562 197.28125 C 184.785156 197.429688 183.9375 197.9375 183.304688 198.808594 C 182.675781 199.667969 182.445312 200.625 182.613281 201.679688 L 186.371094 225.480469 C 186.542969 226.589844 186.808594 227.675781 187.175781 228.738281 C 187.539062 229.800781 187.996094 230.824219 188.542969 231.804688 C 189.089844 232.789062 189.71875 233.714844 190.429688 234.582031 C 191.140625 235.453125 191.921875 236.25 192.777344 236.980469 C 193.632812 237.710938 194.542969 238.359375 195.511719 238.925781 C 196.480469 239.496094 197.496094 239.972656 198.550781 240.359375 C 199.605469 240.746094 200.683594 241.035156 201.789062 241.230469 C 202.898438 241.425781 204.011719 241.519531 205.136719 241.515625 L 213.996094 241.515625 C 215.183594 241.519531 216.371094 241.578125 217.550781 241.695312 C 218.734375 241.8125 219.90625 241.988281 221.074219 242.21875 C 222.238281 242.453125 223.390625 242.742188 224.527344 243.085938 C 225.664062 243.433594 226.78125 243.832031 227.878906 244.289062 C 228.972656 244.742188 230.046875 245.25 231.09375 245.8125 C 232.140625 246.371094 233.160156 246.980469 234.148438 247.640625 C 235.136719 248.300781 236.089844 249.007812 237.007812 249.761719 C 237.925781 250.515625 238.804688 251.3125 239.644531 252.152344 C 240.484375 252.992188 241.28125 253.871094 242.035156 254.789062 C 242.789062 255.707031 243.496094 256.660156 244.160156 257.648438 C 244.820312 258.636719 245.429688 259.652344 245.988281 260.699219 C 246.550781 261.75 247.058594 262.820312 247.515625 263.917969 C 247.96875 265.015625 248.371094 266.132812 248.714844 267.269531 C 249.0625 268.40625 249.351562 269.554688 249.585938 270.722656 C 249.816406 271.886719 249.992188 273.058594 250.109375 274.242188 C 250.230469 275.425781 250.289062 276.609375 250.289062 277.796875 L 250.289062 292.300781 C 250.304688 292.648438 250.28125 292.996094 250.222656 293.34375 C 250.167969 293.6875 250.074219 294.023438 249.949219 294.351562 C 249.824219 294.679688 249.667969 294.988281 249.480469 295.285156 C 249.292969 295.578125 249.078125 295.851562 248.835938 296.105469 C 248.59375 296.355469 248.328125 296.582031 248.039062 296.78125 C 247.75 296.976562 247.445312 297.144531 247.121094 297.28125 C 246.800781 297.417969 246.46875 297.523438 246.125 297.59375 C 245.78125 297.664062 245.4375 297.699219 245.085938 297.699219 C 244.738281 297.699219 244.390625 297.664062 244.046875 297.59375 C 243.703125 297.523438 243.371094 297.417969 243.050781 297.28125 C 242.726562 297.144531 242.421875 296.980469 242.132812 296.78125 C 241.847656 296.582031 241.582031 296.355469 241.335938 296.105469 C 241.09375 295.851562 240.878906 295.578125 240.691406 295.285156 C 240.503906 294.988281 240.347656 294.679688 240.222656 294.351562 C 240.097656 294.023438 240.007812 293.6875 239.949219 293.34375 C 239.890625 292.996094 239.871094 292.648438 239.882812 292.300781 L 239.882812 277.796875 C 239.882812 276.949219 239.839844 276.105469 239.753906 275.261719 C 239.671875 274.417969 239.546875 273.582031 239.378906 272.75 C 239.214844 271.917969 239.007812 271.097656 238.761719 270.289062 C 238.515625 269.476562 238.230469 268.679688 237.90625 267.898438 C 237.582031 267.117188 237.21875 266.351562 236.820312 265.601562 C 236.417969 264.855469 235.984375 264.128906 235.511719 263.425781 C 235.042969 262.722656 234.539062 262.042969 234 261.386719 C 233.460938 260.730469 232.894531 260.105469 232.292969 259.507812 C 231.695312 258.90625 231.066406 258.339844 230.414062 257.800781 C 229.757812 257.261719 229.078125 256.757812 228.375 256.289062 C 227.671875 255.816406 226.945312 255.382812 226.195312 254.980469 C 225.449219 254.582031 224.683594 254.21875 223.902344 253.894531 C 223.121094 253.570312 222.324219 253.285156 221.511719 253.039062 C 220.703125 252.792969 219.882812 252.585938 219.050781 252.421875 C 218.21875 252.253906 217.382812 252.128906 216.539062 252.046875 C 215.695312 251.960938 214.851562 251.917969 214.003906 251.917969 L 205.144531 251.917969 C 204.273438 251.921875 203.410156 251.886719 202.542969 251.8125 C 201.679688 251.738281 200.820312 251.628906 199.964844 251.476562 C 199.109375 251.328125 198.261719 251.140625 197.425781 250.914062 C 196.585938 250.6875 195.761719 250.425781 194.945312 250.128906 C 194.132812 249.828125 193.332031 249.492188 192.546875 249.125 C 191.761719 248.753906 190.996094 248.351562 190.246094 247.910156 C 189.496094 247.472656 188.769531 247.003906 188.0625 246.5 C 187.355469 245.996094 186.671875 245.464844 186.011719 244.898438 C 185.351562 244.335938 184.71875 243.742188 184.109375 243.125 C 183.503906 242.503906 182.925781 241.859375 182.375 241.1875 C 181.824219 240.515625 181.304688 239.820312 180.820312 239.101562 C 180.332031 238.386719 179.875 237.648438 179.453125 236.890625 C 179.03125 236.128906 178.644531 235.355469 178.289062 234.5625 C 177.9375 233.769531 177.617188 232.964844 177.335938 232.140625 C 177.054688 231.320312 176.8125 230.488281 176.601562 229.648438 C 176.394531 228.804688 176.226562 227.953125 176.09375 227.097656 L 172.34375 203.277344 C 172.195312 202.34375 172.140625 201.410156 172.179688 200.464844 C 172.21875 199.523438 172.347656 198.59375 172.570312 197.679688 C 172.792969 196.761719 173.101562 195.878906 173.5 195.023438 C 173.898438 194.167969 174.378906 193.363281 174.9375 192.601562 C 175.496094 191.84375 176.125 191.144531 176.820312 190.511719 C 177.515625 189.875 178.269531 189.316406 179.078125 188.832031 C 179.886719 188.347656 180.734375 187.945312 181.621094 187.628906 C 182.511719 187.3125 183.421875 187.085938 184.355469 186.949219 L 192.40625 185.773438 C 193.609375 185.601562 194.757812 185.257812 195.851562 184.738281 C 196.949219 184.21875 197.945312 183.550781 198.839844 182.730469 C 199.734375 181.910156 200.488281 180.976562 201.101562 179.929688 C 201.714844 178.882812 202.160156 177.769531 202.433594 176.589844 L 204.113281 169.523438 C 204.386719 168.355469 204.707031 167.199219 205.074219 166.058594 C 205.441406 164.917969 205.851562 163.789062 206.304688 162.679688 C 206.761719 161.570312 207.261719 160.480469 207.800781 159.410156 C 208.34375 158.339844 208.925781 157.292969 209.550781 156.269531 C 210.175781 155.246094 210.839844 154.246094 211.542969 153.273438 C 212.25 152.304688 212.988281 151.363281 213.769531 150.449219 C 214.546875 149.535156 215.359375 148.65625 216.207031 147.808594 C 217.054688 146.960938 217.9375 146.144531 218.847656 145.367188 C 219.761719 144.589844 220.703125 143.847656 221.675781 143.144531 C 222.648438 142.441406 223.644531 141.777344 224.667969 141.152344 C 225.691406 140.527344 226.738281 139.941406 227.808594 139.402344 C 228.878906 138.859375 229.96875 138.359375 231.082031 137.90625 C 232.191406 137.449219 233.316406 137.039062 234.457031 136.671875 C 235.601562 136.308594 236.757812 135.988281 237.921875 135.710938 C 239.089844 135.4375 240.269531 135.210938 241.453125 135.027344 C 242.640625 134.847656 243.832031 134.710938 245.027344 134.625 L 254.253906 133.933594 L 254.253906 105.839844 C 254.253906 105.441406 254.300781 105.046875 254.390625 104.65625 C 254.480469 104.269531 254.613281 103.894531 254.789062 103.535156 C 254.964844 103.179688 255.179688 102.84375 255.433594 102.535156 C 255.6875 102.226562 255.972656 101.953125 256.289062 101.707031 C 256.605469 101.464844 256.945312 101.261719 257.308594 101.097656 C 257.671875 100.929688 258.046875 100.808594 258.441406 100.730469 C 258.832031 100.652344 259.226562 100.621094 259.625 100.632812 C 260.023438 100.644531 260.417969 100.703125 260.800781 100.804688 C 261.808594 101.082031 285.753906 107.640625 309.929688 127.863281 C 316.925781 133.660156 323.261719 140.109375 328.9375 147.203125 C 334.617188 154.296875 339.515625 161.894531 343.636719 169.992188 C 353.785156 190.042969 358.929688 213.019531 358.929688 238.304688 Z M 128.308594 105.292969 C 127.941406 104.472656 127.519531 103.6875 127.039062 102.929688 C 126.558594 102.171875 126.023438 101.449219 125.4375 100.769531 C 124.851562 100.089844 124.222656 99.457031 123.542969 98.867188 C 122.867188 98.277344 122.152344 97.742188 121.394531 97.257812 C 120.640625 96.773438 119.851562 96.347656 119.035156 95.976562 C 118.21875 95.605469 117.378906 95.296875 116.515625 95.050781 C 115.652344 94.800781 114.777344 94.617188 113.886719 94.496094 C 113 94.375 112.105469 94.320312 111.207031 94.328125 C 110.3125 94.335938 109.417969 94.410156 108.53125 94.550781 C 107.644531 94.6875 106.773438 94.890625 105.917969 95.15625 C 105.058594 95.421875 104.226562 95.75 103.414062 96.136719 C 102.605469 96.523438 101.828125 96.964844 101.082031 97.464844 C 100.335938 97.964844 99.632812 98.515625 98.964844 99.117188 C 98.300781 99.71875 97.683594 100.367188 97.113281 101.058594 C 96.539062 101.75 96.023438 102.480469 95.558594 103.246094 C 95.089844 104.015625 94.683594 104.8125 94.335938 105.640625 C 94.203125 105.953125 94.101562 106.277344 94.03125 106.613281 C 93.960938 106.945312 93.925781 107.285156 93.921875 107.625 C 93.917969 107.96875 93.949219 108.308594 94.011719 108.640625 C 94.078125 108.976562 94.171875 109.304688 94.300781 109.621094 C 94.429688 109.9375 94.589844 110.238281 94.777344 110.523438 C 94.964844 110.808594 95.175781 111.074219 95.417969 111.316406 C 95.65625 111.558594 95.917969 111.777344 96.199219 111.96875 C 96.484375 112.160156 96.78125 112.324219 97.097656 112.457031 C 97.742188 112.734375 98.417969 112.871094 99.121094 112.871094 C 99.636719 112.875 100.140625 112.800781 100.632812 112.65625 C 101.128906 112.511719 101.589844 112.296875 102.019531 112.011719 C 102.449219 111.730469 102.828125 111.390625 103.160156 110.996094 C 103.488281 110.601562 103.753906 110.167969 103.957031 109.691406 C 104.261719 108.964844 104.667969 108.296875 105.171875 107.6875 C 105.675781 107.074219 106.253906 106.550781 106.910156 106.109375 C 107.566406 105.671875 108.273438 105.332031 109.027344 105.097656 C 109.78125 104.863281 110.554688 104.742188 111.34375 104.734375 C 112.136719 104.726562 112.910156 104.832031 113.671875 105.050781 C 114.429688 105.265625 115.144531 105.589844 115.808594 106.015625 C 116.472656 106.441406 117.066406 106.953125 117.582031 107.554688 C 118.097656 108.152344 118.515625 108.8125 118.839844 109.535156 C 118.976562 109.847656 119.148438 110.140625 119.34375 110.421875 C 119.542969 110.699219 119.765625 110.957031 120.011719 111.191406 C 120.261719 111.425781 120.527344 111.632812 120.816406 111.816406 C 121.105469 112 121.410156 112.152344 121.730469 112.273438 C 122.050781 112.394531 122.378906 112.484375 122.714844 112.542969 C 123.050781 112.601562 123.390625 112.625 123.730469 112.617188 C 124.074219 112.605469 124.410156 112.5625 124.742188 112.488281 C 125.078125 112.414062 125.398438 112.304688 125.710938 112.164062 C 126.023438 112.027344 126.320312 111.859375 126.597656 111.660156 C 126.875 111.464844 127.132812 111.242188 127.367188 110.992188 C 127.601562 110.746094 127.8125 110.476562 127.992188 110.1875 C 128.175781 109.898438 128.328125 109.59375 128.449219 109.273438 C 128.570312 108.957031 128.660156 108.628906 128.71875 108.289062 C 128.777344 107.953125 128.800781 107.613281 128.792969 107.273438 C 128.78125 106.933594 128.742188 106.59375 128.664062 106.261719 C 128.589844 105.929688 128.480469 105.605469 128.34375 105.292969 Z M 250.367188 179.316406 C 250.035156 178.582031 249.65625 177.871094 249.222656 177.191406 C 248.789062 176.511719 248.308594 175.863281 247.78125 175.253906 C 247.257812 174.640625 246.6875 174.074219 246.078125 173.542969 C 245.46875 173.015625 244.824219 172.535156 244.144531 172.097656 C 243.464844 171.664062 242.757812 171.28125 242.023438 170.945312 C 241.289062 170.613281 240.53125 170.335938 239.757812 170.113281 C 238.980469 169.890625 238.195312 169.726562 237.394531 169.617188 C 236.59375 169.511719 235.792969 169.460938 234.984375 169.46875 C 234.179688 169.476562 233.375 169.542969 232.578125 169.667969 C 231.78125 169.792969 231 169.976562 230.226562 170.214844 C 229.457031 170.453125 228.707031 170.746094 227.980469 171.09375 C 227.25 171.441406 226.550781 171.839844 225.882812 172.289062 C 225.210938 172.738281 224.578125 173.234375 223.980469 173.773438 C 223.378906 174.316406 222.824219 174.898438 222.3125 175.519531 C 221.796875 176.140625 221.332031 176.796875 220.910156 177.484375 C 220.492188 178.175781 220.125 178.890625 219.8125 179.636719 C 219.664062 179.953125 219.550781 180.28125 219.46875 180.621094 C 219.386719 180.960938 219.339844 181.304688 219.328125 181.65625 C 219.316406 182.003906 219.339844 182.351562 219.398438 182.699219 C 219.453125 183.042969 219.546875 183.378906 219.671875 183.703125 C 219.796875 184.03125 219.953125 184.34375 220.144531 184.636719 C 220.332031 184.933594 220.546875 185.203125 220.789062 185.457031 C 221.035156 185.707031 221.300781 185.933594 221.585938 186.128906 C 221.875 186.328125 222.179688 186.496094 222.503906 186.632812 C 222.824219 186.765625 223.160156 186.871094 223.5 186.9375 C 223.84375 187.007812 224.191406 187.042969 224.539062 187.042969 C 224.890625 187.042969 225.238281 187.007812 225.578125 186.9375 C 225.921875 186.867188 226.253906 186.761719 226.574219 186.625 C 226.898438 186.488281 227.203125 186.320312 227.492188 186.121094 C 227.777344 185.921875 228.042969 185.695312 228.285156 185.445312 C 228.527344 185.191406 228.742188 184.917969 228.929688 184.621094 C 229.117188 184.328125 229.273438 184.015625 229.398438 183.6875 C 229.636719 183.128906 229.949219 182.613281 230.335938 182.144531 C 230.726562 181.675781 231.171875 181.269531 231.675781 180.929688 C 232.183594 180.59375 232.726562 180.332031 233.308594 180.152344 C 233.890625 179.972656 234.488281 179.878906 235.09375 179.875 C 235.703125 179.867188 236.300781 179.949219 236.886719 180.117188 C 237.472656 180.285156 238.023438 180.53125 238.535156 180.859375 C 239.046875 181.191406 239.503906 181.585938 239.898438 182.046875 C 240.296875 182.507812 240.621094 183.015625 240.871094 183.570312 C 241.007812 183.882812 241.179688 184.179688 241.375 184.457031 C 241.574219 184.734375 241.796875 184.992188 242.046875 185.226562 C 242.292969 185.460938 242.5625 185.667969 242.851562 185.851562 C 243.140625 186.03125 243.445312 186.183594 243.765625 186.304688 C 244.082031 186.429688 244.410156 186.515625 244.75 186.574219 C 245.085938 186.632812 245.425781 186.65625 245.765625 186.644531 C 246.109375 186.636719 246.445312 186.59375 246.777344 186.515625 C 247.109375 186.441406 247.433594 186.332031 247.746094 186.191406 C 248.058594 186.054688 248.351562 185.882812 248.628906 185.6875 C 248.910156 185.488281 249.164062 185.265625 249.402344 185.015625 C 249.636719 184.769531 249.84375 184.5 250.023438 184.210938 C 250.207031 183.921875 250.359375 183.617188 250.480469 183.296875 C 250.601562 182.980469 250.691406 182.652344 250.746094 182.3125 C 250.804688 181.976562 250.828125 181.636719 250.820312 181.296875 C 250.808594 180.953125 250.765625 180.617188 250.691406 180.285156 C 250.613281 179.953125 250.507812 179.628906 250.367188 179.316406 Z M 216.125 83.511719 C 215.839844 83.703125 215.542969 83.863281 215.226562 83.996094 C 214.914062 84.132812 214.589844 84.230469 214.253906 84.300781 C 213.921875 84.371094 213.582031 84.40625 213.242188 84.410156 C 212.898438 84.410156 212.5625 84.378906 212.226562 84.316406 C 211.890625 84.253906 211.5625 84.15625 211.246094 84.027344 C 210.929688 83.898438 210.628906 83.742188 210.34375 83.554688 C 210.058594 83.367188 209.796875 83.152344 209.550781 82.914062 C 209.308594 82.671875 209.089844 82.410156 208.898438 82.128906 C 207.613281 80.222656 206.210938 78.40625 204.691406 76.679688 C 203.171875 74.953125 201.550781 73.328125 199.824219 71.808594 C 198.097656 70.289062 196.285156 68.882812 194.378906 67.59375 C 192.476562 66.304688 190.496094 65.140625 188.445312 64.105469 C 186.390625 63.066406 184.28125 62.164062 182.113281 61.394531 C 179.945312 60.628906 177.738281 60 175.488281 59.511719 C 173.242188 59.027344 170.972656 58.683594 168.679688 58.484375 C 166.390625 58.285156 164.09375 58.234375 161.796875 58.328125 L 110.191406 60.3125 C 109.265625 60.351562 108.347656 60.457031 107.4375 60.636719 C 106.527344 60.8125 105.636719 61.054688 104.761719 61.367188 C 103.890625 61.679688 103.042969 62.054688 102.226562 62.492188 C 101.410156 62.929688 100.632812 63.429688 99.890625 63.984375 C 99.148438 64.542969 98.453125 65.148438 97.800781 65.8125 C 97.152344 66.472656 96.554688 67.179688 96.011719 67.929688 C 95.46875 68.679688 94.984375 69.46875 94.558594 70.292969 C 94.136719 71.117188 93.773438 71.96875 93.476562 72.847656 L 87.402344 91.078125 C 87.015625 92.246094 86.558594 93.386719 86.027344 94.492188 C 85.496094 95.601562 84.898438 96.671875 84.230469 97.703125 C 83.5625 98.734375 82.832031 99.71875 82.039062 100.660156 C 81.242188 101.597656 80.394531 102.480469 79.484375 103.308594 C 78.578125 104.140625 77.625 104.90625 76.617188 105.613281 C 75.613281 106.320312 74.566406 106.960938 73.480469 107.535156 C 72.390625 108.105469 71.273438 108.609375 70.121094 109.039062 C 68.96875 109.46875 67.796875 109.820312 66.597656 110.101562 L 57.199219 112.324219 L 57.199219 112.496094 C 57.203125 114.742188 56.992188 116.964844 56.5625 119.167969 C 56.132812 121.367188 55.496094 123.507812 54.648438 125.585938 C 53.800781 127.664062 52.761719 129.640625 51.527344 131.515625 C 50.292969 133.386719 48.890625 135.125 47.316406 136.726562 C 44.90625 139.195312 42.1875 141.257812 39.15625 142.914062 C 36.125 144.566406 32.921875 145.738281 29.539062 146.429688 L 30.746094 151.953125 C 30.941406 152.832031 31.175781 153.699219 31.441406 154.554688 C 31.710938 155.414062 32.015625 156.257812 32.355469 157.089844 C 32.695312 157.921875 33.066406 158.738281 33.476562 159.539062 C 33.882812 160.339844 34.324219 161.121094 34.800781 161.882812 C 35.273438 162.644531 35.777344 163.386719 36.316406 164.109375 C 36.851562 164.828125 37.417969 165.527344 38.011719 166.199219 C 38.609375 166.871094 39.230469 167.519531 39.878906 168.140625 C 40.53125 168.761719 41.203125 169.351562 41.902344 169.917969 C 42.601562 170.480469 43.324219 171.011719 44.070312 171.515625 C 44.8125 172.019531 45.578125 172.492188 46.363281 172.929688 C 47.148438 173.367188 47.949219 173.773438 48.765625 174.144531 C 49.582031 174.515625 50.417969 174.851562 51.261719 175.152344 C 52.109375 175.453125 52.96875 175.71875 53.835938 175.949219 C 54.703125 176.175781 55.582031 176.367188 56.464844 176.523438 C 57.351562 176.679688 58.242188 176.796875 59.136719 176.875 C 60.03125 176.957031 60.925781 177 61.824219 177.003906 L 112.449219 177.003906 C 114.425781 173.296875 116.855469 169.910156 119.738281 166.851562 L 119.828125 166.761719 C 138.730469 146.179688 148.308594 123.941406 148.308594 100.589844 C 148.320312 100.257812 148.363281 99.925781 148.441406 99.601562 C 148.515625 99.277344 148.621094 98.960938 148.757812 98.65625 C 148.894531 98.351562 149.058594 98.0625 149.25 97.789062 C 149.441406 97.515625 149.65625 97.261719 149.898438 97.03125 C 150.140625 96.800781 150.398438 96.59375 150.679688 96.410156 C 150.960938 96.230469 151.253906 96.074219 151.5625 95.949219 C 151.875 95.824219 152.191406 95.730469 152.519531 95.667969 C 152.847656 95.605469 153.179688 95.574219 153.511719 95.574219 C 153.847656 95.574219 154.179688 95.605469 154.503906 95.667969 C 154.832031 95.730469 155.152344 95.824219 155.460938 95.949219 C 155.773438 96.074219 156.066406 96.230469 156.347656 96.410156 C 156.628906 96.59375 156.886719 96.800781 157.128906 97.03125 C 157.367188 97.261719 157.585938 97.515625 157.777344 97.789062 C 157.96875 98.0625 158.132812 98.351562 158.269531 98.65625 C 158.402344 98.960938 158.511719 99.277344 158.585938 99.601562 C 158.660156 99.925781 158.703125 100.257812 158.71875 100.589844 C 158.71875 126.65625 148.171875 151.332031 127.367188 173.9375 C 127.320312 173.992188 127.269531 174.042969 127.214844 174.089844 C 124.414062 177.09375 122.179688 180.472656 120.511719 184.226562 C 120.199219 184.925781 119.914062 185.636719 119.644531 186.351562 C 119.378906 187.070312 119.136719 187.792969 118.914062 188.527344 C 118.695312 189.257812 118.496094 189.996094 118.320312 190.742188 C 118.144531 191.484375 117.992188 192.234375 117.863281 192.988281 C 117.734375 193.742188 117.632812 194.5 117.550781 195.261719 C 117.46875 196.023438 117.410156 196.785156 117.375 197.546875 C 117.339844 198.3125 117.332031 199.078125 117.34375 199.839844 C 117.359375 200.605469 117.394531 201.371094 117.457031 202.132812 C 117.515625 202.894531 117.601562 203.65625 117.707031 204.410156 C 117.816406 205.167969 117.949219 205.921875 118.101562 206.671875 C 118.257812 207.421875 118.433594 208.164062 118.636719 208.902344 C 118.835938 209.640625 119.058594 210.371094 119.304688 211.09375 C 119.554688 211.820312 119.820312 212.535156 120.113281 213.242188 C 120.402344 213.949219 120.714844 214.648438 121.050781 215.335938 C 121.382812 216.023438 121.738281 216.699219 122.117188 217.367188 C 122.492188 218.03125 122.886719 218.6875 123.304688 219.328125 C 123.722656 219.96875 124.160156 220.597656 124.613281 221.210938 C 125.070312 221.824219 125.542969 222.425781 126.039062 223.007812 C 126.53125 223.59375 127.042969 224.164062 127.570312 224.714844 C 128.097656 225.269531 128.644531 225.804688 129.207031 226.324219 C 129.765625 226.84375 130.34375 227.34375 130.9375 227.828125 C 131.53125 228.3125 132.136719 228.773438 132.761719 229.21875 C 133.382812 229.667969 134.015625 230.09375 134.664062 230.496094 C 135.3125 230.902344 135.972656 231.289062 136.644531 231.65625 C 137.316406 232.019531 138 232.363281 138.695312 232.6875 C 139.386719 233.007812 140.089844 233.308594 140.804688 233.589844 C 141.515625 233.867188 142.234375 234.125 142.964844 234.359375 C 143.691406 234.589844 144.425781 234.804688 145.167969 234.992188 C 145.910156 235.179688 146.65625 235.34375 147.40625 235.488281 C 148.160156 235.628906 148.914062 235.75 149.671875 235.84375 C 150.433594 235.9375 151.191406 236.011719 151.957031 236.058594 C 152.71875 236.105469 153.484375 236.128906 154.25 236.128906 C 154.589844 236.128906 154.929688 236.164062 155.265625 236.230469 C 155.601562 236.296875 155.925781 236.394531 156.242188 236.527344 C 156.558594 236.65625 156.859375 236.816406 157.140625 237.007812 C 157.425781 237.199219 157.6875 237.414062 157.929688 237.65625 C 158.171875 237.898438 158.386719 238.160156 158.578125 238.445312 C 158.769531 238.730469 158.929688 239.027344 159.058594 239.34375 C 159.191406 239.660156 159.289062 239.988281 159.355469 240.320312 C 159.421875 240.65625 159.457031 240.996094 159.457031 241.335938 C 159.457031 241.679688 159.421875 242.019531 159.355469 242.355469 C 159.289062 242.6875 159.191406 243.015625 159.058594 243.332031 C 158.929688 243.644531 158.769531 243.945312 158.578125 244.230469 C 158.386719 244.515625 158.171875 244.777344 157.929688 245.019531 C 157.6875 245.261719 157.425781 245.476562 157.140625 245.667969 C 156.859375 245.859375 156.558594 246.019531 156.242188 246.148438 C 155.925781 246.28125 155.601562 246.378906 155.265625 246.445312 C 154.929688 246.511719 154.589844 246.546875 154.25 246.546875 C 148.613281 246.550781 143.152344 245.574219 137.867188 243.625 L 137.867188 276.484375 C 137.867188 287.410156 142.699219 305.023438 156.417969 318.710938 C 156.667969 318.949219 156.894531 319.210938 157.09375 319.496094 C 157.292969 319.78125 157.460938 320.082031 157.601562 320.402344 C 157.738281 320.71875 157.84375 321.050781 157.917969 321.386719 C 157.992188 321.726562 158.027344 322.070312 158.03125 322.417969 C 158.039062 322.765625 158.007812 323.109375 157.941406 323.453125 C 157.878906 323.792969 157.78125 324.125 157.648438 324.445312 C 157.519531 324.765625 157.355469 325.074219 157.164062 325.363281 C 156.972656 325.652344 156.753906 325.917969 156.507812 326.164062 C 156.261719 326.410156 155.996094 326.628906 155.707031 326.820312 C 155.417969 327.011719 155.109375 327.175781 154.789062 327.304688 C 154.46875 327.4375 154.136719 327.535156 153.796875 327.597656 C 153.453125 327.664062 153.109375 327.695312 152.761719 327.6875 C 152.414062 327.683594 152.070312 327.644531 151.730469 327.574219 C 151.394531 327.5 151.0625 327.394531 150.746094 327.257812 C 150.425781 327.117188 150.125 326.949219 149.839844 326.75 C 149.554688 326.550781 149.292969 326.324219 149.054688 326.074219 C 128.496094 305.511719 127.457031 281.179688 127.457031 276.484375 L 127.457031 238.242188 C 125.46875 236.878906 123.597656 235.371094 121.839844 233.71875 C 120.082031 232.066406 118.460938 230.289062 116.972656 228.390625 C 115.488281 226.492188 114.15625 224.488281 112.976562 222.386719 C 111.796875 220.28125 110.78125 218.101562 109.9375 215.839844 C 109.089844 213.582031 108.421875 211.273438 107.929688 208.910156 C 107.4375 206.550781 107.125 204.164062 107 201.757812 C 106.871094 199.347656 106.925781 196.941406 107.167969 194.542969 C 107.40625 192.144531 107.828125 189.773438 108.429688 187.4375 L 61.847656 187.4375 C 60.652344 187.433594 59.464844 187.378906 58.277344 187.273438 C 57.085938 187.164062 55.90625 187.011719 54.730469 186.804688 C 53.554688 186.597656 52.390625 186.34375 51.238281 186.042969 C 50.085938 185.738281 48.945312 185.386719 47.824219 184.988281 C 46.699219 184.585938 45.59375 184.140625 44.507812 183.648438 C 43.421875 183.15625 42.359375 182.621094 41.316406 182.039062 C 40.277344 181.457031 39.261719 180.832031 38.273438 180.164062 C 37.285156 179.496094 36.324219 178.789062 35.398438 178.039062 C 34.46875 177.292969 33.574219 176.507812 32.710938 175.683594 C 31.847656 174.859375 31.019531 174 30.230469 173.105469 C 29.441406 172.214844 28.6875 171.289062 27.976562 170.332031 C 27.261719 169.375 26.59375 168.390625 25.964844 167.378906 C 25.332031 166.363281 24.746094 165.328125 24.207031 164.265625 C 23.664062 163.203125 23.167969 162.121094 22.714844 161.015625 C 22.265625 159.910156 21.859375 158.789062 21.503906 157.652344 C 21.148438 156.515625 20.839844 155.363281 20.582031 154.199219 L 18.171875 143.148438 C 18.171875 143.105469 18.171875 143.058594 18.171875 143.015625 L 13.867188 123.394531 C 13.714844 122.671875 13.628906 121.941406 13.617188 121.203125 C 13.601562 120.464844 13.660156 119.734375 13.789062 119.007812 C 13.917969 118.28125 14.117188 117.570312 14.382812 116.882812 C 14.648438 116.195312 14.980469 115.539062 15.371094 114.914062 C 15.765625 114.289062 16.214844 113.707031 16.722656 113.167969 C 17.226562 112.628906 17.78125 112.144531 18.378906 111.714844 C 18.980469 111.285156 19.613281 110.914062 20.285156 110.609375 C 20.957031 110.300781 21.652344 110.058594 22.371094 109.886719 L 50.367188 103.25 L 50.597656 103.195312 L 64.203125 99.96875 C 65.742188 99.609375 67.210938 99.0625 68.609375 98.324219 C 70.007812 97.585938 71.292969 96.683594 72.457031 95.617188 C 73.625 94.550781 74.636719 93.351562 75.496094 92.023438 C 76.355469 90.695312 77.03125 89.28125 77.523438 87.777344 L 83.609375 69.546875 C 84.074219 68.167969 84.636719 66.832031 85.300781 65.542969 C 85.964844 64.25 86.722656 63.015625 87.574219 61.835938 C 88.425781 60.660156 89.359375 59.550781 90.378906 58.515625 C 91.398438 57.480469 92.488281 56.523438 93.652344 55.652344 C 94.8125 54.78125 96.035156 54.003906 97.3125 53.316406 C 98.59375 52.628906 99.917969 52.039062 101.289062 51.550781 C 102.65625 51.066406 104.054688 50.683594 105.480469 50.40625 C 106.90625 50.128906 108.347656 49.960938 109.796875 49.902344 L 161.402344 47.929688 C 164.140625 47.816406 166.875 47.875 169.605469 48.109375 C 172.332031 48.347656 175.035156 48.753906 177.714844 49.335938 C 180.390625 49.914062 183.019531 50.660156 185.601562 51.578125 C 188.183594 52.492188 190.699219 53.566406 193.144531 54.804688 C 195.589844 56.039062 197.945312 57.425781 200.214844 58.960938 C 202.484375 60.496094 204.644531 62.171875 206.699219 63.980469 C 208.753906 65.792969 210.6875 67.726562 212.496094 69.785156 C 214.300781 71.84375 215.972656 74.007812 217.503906 76.28125 C 217.695312 76.5625 217.859375 76.859375 217.992188 77.175781 C 218.125 77.492188 218.226562 77.816406 218.296875 78.148438 C 218.367188 78.484375 218.402344 78.824219 218.402344 79.164062 C 218.40625 79.507812 218.375 79.84375 218.3125 80.179688 C 218.246094 80.515625 218.152344 80.84375 218.023438 81.160156 C 217.894531 81.476562 217.734375 81.777344 217.546875 82.0625 C 217.359375 82.347656 217.148438 82.613281 216.90625 82.855469 C 216.667969 83.101562 216.40625 83.320312 216.125 83.511719 Z M 46.671875 114.816406 L 24.765625 120.011719 C 24.507812 120.074219 24.304688 120.222656 24.164062 120.449219 C 24.023438 120.671875 23.980469 120.917969 24.035156 121.179688 L 27.320312 136.28125 C 28.585938 136.023438 29.820312 135.664062 31.03125 135.203125 C 32.238281 134.746094 33.402344 134.199219 34.523438 133.554688 C 35.640625 132.914062 36.703125 132.1875 37.710938 131.375 C 38.714844 130.566406 39.648438 129.679688 40.515625 128.722656 C 41.378906 127.761719 42.164062 126.742188 42.867188 125.65625 C 43.566406 124.574219 44.179688 123.441406 44.703125 122.261719 C 45.226562 121.082031 45.652344 119.867188 45.984375 118.617188 C 46.3125 117.371094 46.542969 116.101562 46.671875 114.816406 Z M 46.671875 114.816406 " fill-opacity="1" fill-rule="nonzero"/></svg>